<svg width="30" height="40" viewBox="0 0 30 40" fill="none" xmlns="http://www.w3.org/2000/svg">
<path d="M7.09572 33.5966C7.20886 20.159 12.0825 13.435 18.1511 12.6312C17.9424 9.71994 16.9036 11.6267 16.4798 10.976C9.36907 11.7414 6.37103 19.4914 7.09569 33.5965L7.09572 33.5966Z" fill="#060715"/>
<path d="M7.54972 39.7973C3.59848 22.6784 8.29844 7.95503 16.7352 10.4437C15.2677 7.29944 9.06315 8.33563 7.53636 10.3917C4.73337 12.8531 1.88361 19.1269 7.54971 39.7971L7.54972 39.7973Z" fill="#060715"/>
<path d="M8.78901 29.3898C8.81594 18.8166 12.1251 13.5437 16.2737 12.9344C16.12 10.6428 15.4165 12.1393 15.1241 11.6256C10.2622 12.2012 8.23996 18.2883 8.78883 29.3898L8.78901 29.3898Z" fill="#060715"/>
<path d="M13.0817 21.4243C13.3026 15.0667 17.0254 11.8363 21.5842 11.395C21.4572 10.0199 20.6589 10.9324 20.3477 10.6289C15.0078 11.063 12.6809 14.7595 13.0816 21.4241L13.0817 21.4243Z" fill="#060715"/>
<path d="M8.81271 37.8998C5.19047 20.5264 9.35095 5.6183 16.9414 8.17728C15.6096 4.98315 10.0393 6.00756 8.67655 8.08569C6.16862 10.5695 3.63472 16.9185 8.81269 37.8998L8.81271 37.8998Z" fill="#060715"/>
<path d="M8.0486 36.7197C4.68746 17.7261 8.58684 4.43819 16.1773 6.99717C14.8455 3.80304 9.569 6.29295 8.20629 8.37113C5.40112 13.6842 2.87061 15.7384 8.0486 36.7197V36.7197Z" fill="#060715"/>
<path d="M4.85207 33.2912C5.15204 20.1181 11.5305 13.4713 19.3861 12.6145C19.1495 9.76329 17.7847 11.6442 17.2442 11.0112C8.04152 11.8428 4.07624 19.4738 4.85204 33.2912L4.85207 33.2912Z" fill="#060715"/>
<path d="M4.72287 31.2768C5.02285 18.1038 11.4013 11.457 19.2569 10.6002C19.0204 7.74897 17.6555 9.62987 17.115 8.99689C7.91233 9.82846 3.94704 17.4595 4.72285 31.2769L4.72287 31.2768Z" fill="#060715"/>
<path d="M2.83734 27.9309C4.04181 14.9625 11.227 10.0396 19.1248 10.7022C19.0846 7.83726 17.23 9.0109 16.7341 8.28105C7.49369 7.33419 3.01261 14.118 2.83736 27.9308L2.83734 27.9309Z" fill="#060715"/>
<path d="M1.43944 21.9567C4.18811 10.519 11.6269 9.40826 19.421 14.5286C19.723 11.8273 18.0457 12.471 17.6385 11.506C8.54 5.35445 3.26301 9.14294 1.43946 21.9565L1.43944 21.9567Z" fill="#060715"/>
<path d="M1.12934 16.16C6.92486 6.87772 11.2198 7.34281 17.1207 17.2677C17.9919 14.3865 17.3589 15.7492 18.2428 13.5029C10.0813 2.43517 4.77851 5.08863 1.12931 16.16L1.12934 16.16Z" fill="#060715"/>
<path d="M2.77343 9.4296C8.51495 5.24931 8.04954 6.96177 15.4345 11.4642C16.3057 8.58295 16.9624 10.167 17.8463 7.92066C13.4102 2.35337 8.14811 3.93193 2.7734 9.4296L2.77343 9.4296Z" fill="#060715"/>
<path d="M27.8245 14.0755C24.8431 10.773 26.139 8.36878 18.7819 12.0436C17.8905 9.06342 17.7408 9.66913 16.8411 7.32273C22.3252 2.9513 26.5281 9.59575 27.8244 14.0756L27.8245 14.0755Z" fill="#060715"/>
<path d="M9.66067 26.942C9.75843 18.3081 12.4604 16.1514 16.6123 15.626C16.474 13.7559 16.5672 12.94 16.2783 12.5226C11.4137 13.0251 9.18638 17.8811 9.66073 26.9422L9.66067 26.942Z" fill="#060715"/>
<path d="M24.8268 34.7251C24.5883 23.7545 21.9016 14.4997 17.1966 13.706C17.3005 11.4128 18.0166 13.3364 18.2915 12.9591C23.0448 16.1324 25.1393 23.512 24.8268 34.7251L24.8268 34.7251Z" fill="#060715"/>
<path d="M19.8232 21.5794C19.7175 14.2459 16.473 9.4593 12.4506 7.61561C12.5823 6.08083 13.2748 7.35853 13.5541 7.10291C18.2669 9.16749 20.2712 14.0772 19.8232 21.5793L19.8232 21.5794Z" fill="#060715"/>
<path d="M28.0025 36.401C28.18 23.9091 27.6898 19.3598 18.5031 11.8414C18.6351 8.99552 20.2299 10.1792 20.7475 9.56142C24.7538 22.8722 26.5724 23.9149 28.0026 36.401L28.0025 36.401Z" fill="#060715"/>
<path d="M26.1761 36.4336C25.2079 25.5277 22.6545 17.4248 19.1262 14.1249C19.076 11.8165 19.9129 13.6028 20.1596 13.1749C25.0741 15.4547 25.7369 25.1831 26.1763 36.4335L26.1761 36.4336Z" fill="#060715"/>
<path d="M25.2192 38.007C25.4058 27.0615 23.7262 18.3893 20.5753 14.1258C20.7682 11.8546 21.41 13.8468 21.6997 13.5011C26.3323 17.1752 25.9665 26.8799 25.2193 38.0069L25.2192 38.007Z" fill="#060715"/>
<path d="M24.7284 36.0628C25.9407 26.7588 24.6768 19.4597 21.2252 15.9622C21.6643 14.0256 22.2663 15.6925 22.65 15.3876C27.9579 18.3262 26.6393 26.5827 24.7284 36.0628V36.0628Z" fill="#060715"/>
<path d="M26.0338 31.3791C27.2461 22.0752 23.8419 15.3909 20.3903 11.8938C20.8295 9.9572 23.5717 11.0091 23.9553 10.7041C27.9818 15.8369 27.5233 23.5254 26.0337 31.3794L26.0338 31.3791Z" fill="#060715"/>
<path d="M28.7635 21.4744C25.9204 10.2409 21.3145 10.7198 16.1492 12.2369C15.7437 9.56139 15.1039 9.22638 15.3536 8.23741C21.926 1.5135 26.5404 8.80869 28.7634 21.4744L28.7635 21.4744Z" fill="#060715"/>
<path d="M29.1345 35.353C26.4162 13.87 23.1648 15.5539 18.1686 14.8693C17.763 12.1939 20.867 10.1541 21.1167 9.16496C25.9773 10.2397 28.5493 19.7 29.1345 35.353Z" fill="#060715"/>
<path d="M5.92882 1.62497C11.0792 2.71709 11.4706 2.79756 14.4682 7.99524C16.2262 9.5671 15.3365 7.09656 16.7152 8.66464C13.7554 -0.147302 9.0954 0.950348 5.92882 1.62492L5.92882 1.62497Z" fill="#060715"/>
<path d="M25.4107 7.5664C19.7297 4.02751 18.8687 7.99758 16.2349 7.9307C14.5961 9.62662 14.5929 6.97585 13.3324 8.64032C17.2492 0.168982 23.4066 3.82812 25.4107 7.56638L25.4107 7.5664Z" fill="#060715"/>
<path d="M29.078 28.5836C27.8179 15.4676 20.9715 9.30375 13.0744 9.02231C13.1023 6.16145 14.6007 7.93774 15.0936 7.26701C24.3324 7.42505 28.8438 14.7465 29.078 28.5837L29.078 28.5836Z" fill="#060715"/>
<path d="M13.3686 7.59477C11.9812 7.53559 11.5299 7.91969 10.6803 8.2732C11.4651 8.42522 11.9718 7.81843 12.216 8.19105C12.3196 7.97348 11.8893 8.17517 11.7507 8.62001C12.4531 8.10953 13.2315 7.74877 13.3685 7.59478L13.3686 7.59477Z" fill="url(#paint0_linear)"/>
<path d="M13.6837 5.67233C13.2828 5.47603 11.6778 5.15673 8.71616 6.68838C10.5419 6.64445 10.8702 6.22356 11.1486 6.77417C11.4267 6.23323 10.5434 7.00026 9.71514 8.00758C11.0954 7.98151 11.507 7.17023 11.5604 7.51947C11.7795 7.69616 10.8409 7.91625 10.4452 8.98609C11.2911 8.63141 12.1275 7.22043 14.0199 6.98215C13.3418 6.7074 12.5963 6.57335 11.6992 6.8141C11.9727 6.03063 13.3372 6.08654 13.684 5.67235L13.6837 5.67233Z" fill="url(#paint1_linear)"/>
<path d="M14.6598 7.60014C12.0788 7.85913 11.0626 9.15006 8.92407 11.0297C10.7069 10.469 11.9613 8.94391 12.2897 9.4114C12.5072 8.79595 11.3193 9.4955 10.6104 10.7295C11.8597 9.72906 11.9469 9.52809 11.6678 10.7017C12.4647 10.2406 12.4739 9.54166 14.3021 8.7693C13.6104 8.68873 13.4894 8.74412 12.6357 9.23705C12.824 8.3822 14.3623 8.10931 14.6599 7.60014L14.6598 7.60014Z" fill="url(#paint2_linear)"/>
<path d="M14.4644 9.73049C12.1386 10.2987 11.9772 11.1639 11.4288 12.404C12.837 11.6363 12.5903 11.3791 13.1461 11.7986C13.0337 11.1674 12.2647 11.9993 12.2301 13.2983C12.9013 12.1632 13.1949 11.9114 14.2959 10.7432C13.5947 10.7481 13.316 10.8895 12.6758 11.3502C12.4112 10.4871 14.4454 10.2671 14.4646 9.73049L14.4645 9.73049L14.4644 9.73049Z" fill="url(#paint3_linear)"/>
<path d="M14.958 11.1634C13.2363 12.1023 12.8163 13.2772 11.7508 15.1827C12.8572 14.2756 13.3905 12.8718 13.718 13.0912C13.7343 12.6101 13.0678 13.4352 12.8471 14.4806C13.4907 13.4335 13.5072 13.2716 13.5695 14.1489C14.0184 13.6009 13.8731 13.1248 14.965 12.061C14.4711 12.211 14.3997 12.2843 13.9186 12.8707C13.8629 12.2361 14.8633 11.5962 14.9579 11.1634L14.958 11.1634Z" fill="url(#paint4_linear)"/>
<path d="M15.2121 12.7858C13.3706 14.708 12.9919 15.9466 12.0771 17.7162C13.1835 16.809 13.5128 15.1516 14.0348 15.364C14.0511 14.8829 13.6002 15.8136 13.6624 16.6909C14.2995 14.8961 15.1174 13.2188 15.212 12.7859L15.2121 12.7858Z" fill="url(#paint5_linear)"/>
<path d="M14.2285 11.1603C13.0708 11.9498 12.7731 12.6042 12.1405 13.4717C12.8186 13.1419 13.1185 12.2342 13.3931 12.4522C13.4362 12.1745 13.1201 12.6362 13.0927 13.1594C13.573 12.227 14.1454 11.3958 14.2285 11.1603Z" fill="url(#paint6_linear)"/>
<path d="M7.81675 11.6527C5.73808 13.0629 4.99613 14.9976 4.18123 18.156C4.82122 16.3141 5.55373 15.1021 5.81991 14.5945C6.08169 14.1188 6.58398 13.2181 7.81664 11.6525L7.81675 11.6527Z" fill="url(#paint7_linear)"/>
<path d="M6.24901 17.8734C4.48513 20.1599 4.07978 22.3724 3.79646 25.8103C4.11906 23.7332 4.62866 22.23 4.80331 21.6182C4.97875 21.0395 5.3173 19.9408 6.24906 17.8735L6.24901 17.8734Z" fill="url(#paint8_linear)"/>
<path d="M9.76156 18.5102C8.25061 20.4957 7.88653 22.4599 7.61306 25.5238C7.90598 23.6777 8.35094 22.3508 8.5044 21.8097C8.6582 21.2981 8.9548 20.3271 9.76155 18.51L9.76156 18.5102Z" fill="url(#paint9_linear)"/>
<path d="M7.72907 7.01335C5.47544 7.38974 4.43401 8.88395 3.11889 11.5069C4.04591 10.0537 4.95853 9.24182 5.30127 8.88292C5.63444 8.55233 6.27177 7.92938 7.72899 7.01335L7.72907 7.01335Z" fill="url(#paint10_linear)"/>
<path d="M19.766 3.84073C18.3494 3.82601 18.1417 3.70671 16.2361 5.18939C17.6264 4.49994 17.7575 4.9466 17.9906 5.39436C18.1409 4.99177 17.4889 5.10312 16.9956 5.83186C17.8703 5.43516 17.9561 5.52193 19.2393 5.46421C18.7522 5.20433 18.6758 4.77618 18.0772 4.90309C18.2059 4.31118 19.5588 4.13997 19.7659 3.84073L19.766 3.84073Z" fill="url(#paint11_linear)"/>
<path d="M19.7963 6.1078C18.6148 5.48147 17.7798 6.08311 17.1909 6.87021C17.9107 6.5135 18.5686 6.26289 18.7225 6.7203C18.8178 6.32497 18.1346 6.66924 17.8184 7.37505C18.3841 7.01767 18.5661 6.69927 18.4465 7.49629C18.8086 7.40195 18.8078 6.8773 19.6406 6.87643C19.3229 6.59539 19.2678 6.59866 18.8799 6.69889C18.9602 6.11362 19.6635 6.39742 19.7963 6.10781L19.7963 6.1078Z" fill="url(#paint12_linear)"/>
<path d="M20.0606 7.35037C18.6732 7.29118 18.7766 7.40273 17.9271 7.75624C18.7119 7.90826 18.8826 7.37682 19.1267 7.74944C19.2304 7.53187 18.8001 7.73356 18.6615 8.1784C19.3639 7.66793 19.9236 7.50436 20.0606 7.35037L20.0606 7.35037Z" fill="url(#paint13_linear)"/>
<path d="M20.1535 7.80611C18.6283 7.87186 18.4906 8.36624 18.0882 9.03791C19.0281 8.74679 18.8785 8.56545 19.2216 8.87917C19.1732 8.49155 18.6441 8.89534 18.5717 9.66185C19.0493 9.0668 19.2488 8.95171 20.0055 8.38716C19.5521 8.30826 19.3665 8.35964 18.9349 8.55824C18.7971 8.01542 20.1205 8.12218 20.1535 7.80612L20.1535 7.80611Z" fill="url(#paint14_linear)"/>
<path d="M20.2167 9.30025C18.6889 9.12277 18.5232 9.59116 18.083 10.1932C19.0386 10.0541 18.8995 9.85042 19.2245 10.2161C19.1982 9.82403 18.6466 10.1403 18.5306 10.8889C19.0416 10.3748 19.2475 10.2924 20.0357 9.8529C19.5872 9.70251 19.3988 9.72394 18.9562 9.85222C18.8495 9.29199 20.1657 9.60842 20.2167 9.30022L20.2167 9.30025Z" fill="url(#paint15_linear)"/>
<path d="M19.8373 11.3003C19.2236 10.2573 18.8182 10.7194 18.0802 11.0775C18.5567 11.5177 19.0478 10.9975 19.0569 11.4975C19.1904 11.1496 18.828 11.0956 18.4992 11.6629C18.9169 11.5253 18.9641 11.4194 18.7399 12.1477C18.9819 12.1899 19.0802 11.6812 19.5961 11.9877C19.4523 11.5981 19.4176 11.5809 19.1585 11.5349C19.3185 10.9974 19.7005 11.532 19.8374 11.3003L19.8373 11.3003Z" fill="url(#paint16_linear)"/>
<path d="M19.1816 19.2761C18.4832 16.0208 18.0786 14.0182 17.3431 12.5907C17.7455 14.2685 18.0398 14.8998 17.9767 15.6658C18.1674 15.7091 17.8078 14.6866 17.4637 14.7441C18.1981 15.7608 19.0068 19.1184 19.1816 19.2762L19.1816 19.2761Z" fill="url(#paint17_linear)"/>
<path d="M9.76156 18.5102C8.25061 20.4957 7.88653 22.4599 7.61306 25.5238C7.90598 23.6777 8.35094 22.3508 8.5044 21.8097C8.6582 21.2981 8.9548 20.3271 9.76155 18.51L9.76156 18.5102Z" fill="url(#paint18_linear)"/>
<path d="M20.2738 14.5548C21.4652 17.1224 21.9353 18.5852 22.1565 21.8229C21.9209 19.9195 21.5295 18.8156 21.393 18.243C21.2554 17.6999 20.9541 16.7323 20.2738 14.5547L20.2738 14.5548Z" fill="url(#paint19_linear)"/>
<path d="M26.8914 18.4978C27.8965 20.6588 28.2977 21.8953 28.5122 24.6524C28.2994 23.0342 27.9665 22.102 27.8486 21.6169C27.7299 21.1569 27.4726 20.3388 26.8914 18.4978V18.4978Z" fill="url(#paint20_linear)"/>
<path d="M24.0227 7.82936C25.4584 9.12889 26.2558 10.4934 27.1343 12.8957C26.5411 11.5463 26.0117 10.9156 25.7856 10.5488C25.565 10.2058 25.0002 9.12821 24.0228 7.82936L24.0227 7.82936Z" fill="url(#paint21_linear)"/>
<path d="M6.91337 1.5163C8.66112 1.3547 10.6657 0.886164 12.0833 2.40704C11.021 1.88713 10.2395 1.78244 9.60655 1.69517C9.32099 1.54995 8.93477 1.61313 6.9135 1.51632L6.91337 1.5163Z" fill="url(#paint22_linear)"/>
<path d="M22.0478 7.98684C23.9644 9.04397 26.2242 12.1579 26.9482 15.403C26.3631 13.7024 25.1449 11.804 24.9076 11.3276C24.6748 10.8801 23.8202 9.81178 22.0478 7.9868L22.0478 7.98684Z" fill="url(#paint23_linear)"/>
<path d="M22.8791 11.9298C24.3774 13.4975 25.9119 16.9203 26.1241 19.9115C25.8379 18.2713 25.038 16.2408 24.8955 15.7554C24.7531 15.296 24.1593 14.0937 22.8791 11.9296L22.8791 11.9298Z" fill="url(#paint24_linear)"/>
<path d="M21.9315 19.9535C21.1788 14.9454 17.5316 11.9859 13.3711 11.1159C13.3663 10.0529 14.1675 10.8597 14.4225 10.6577C19.2885 11.6118 21.7142 14.7761 21.9315 19.9534L21.9315 19.9535Z" fill="#060715"/>
<path d="M20.6223 19.2165C19.9753 12.8784 16.0387 10.7265 12.6766 9.5253C12.6643 8.18376 14.2886 7.54875 14.4926 7.30005C18.4245 8.62449 20.4058 12.6777 20.6222 19.2163L20.6223 19.2165Z" fill="#060715"/>
<path d="M17.4041 20.4186C17.305 13.92 14.5343 9.6741 11.1044 8.0355C11.2147 6.67561 12.3851 6.8338 12.6228 6.60764C16.6412 8.44302 17.7765 13.7712 17.4041 20.4188L17.4041 20.4186Z" fill="#060715"/>
<path d="M12.5043 17.4393C10.7404 19.7258 10.3351 21.9382 10.0518 25.3761C10.3744 23.2991 10.8839 21.7959 11.0586 21.184C11.234 20.6053 11.5726 19.5066 12.5044 17.4393L12.5043 17.4393Z" fill="url(#paint25_linear)"/>
<path d="M11.7059 25.0124C11.7133 13.9028 15.5758 14.4401 19.7247 13.8308C19.5709 11.5392 19.0111 14.7751 18.7187 14.2615C13.0471 14.5982 11.157 13.9109 11.7059 25.0124L11.7059 25.0124Z" fill="#060715"/>
<path d="M10.4731 25.5459C10.6141 19.1912 13.6594 15.9855 17.4116 15.5736C17.2981 14.1981 16.6466 15.1052 16.3883 14.7998C11.9927 15.1994 10.1003 18.88 10.473 25.5457L10.4731 25.5459Z" fill="#060715"/>
<path d="M8.55535 34.1646C7.70798 24.6142 9.24794 17.6508 12.8186 14.9941C12.4563 12.9615 11.7927 14.4768 11.4226 14.0816C6.02571 15.7382 7.01946 24.272 8.55526 34.1645L8.55535 34.1646Z" fill="#060715"/>
<defs>
<linearGradient id="paint0_linear" x1="11.159" y1="7.30566" x2="11.5636" y2="9.68427" gradientUnits="userSpaceOnUse">
<stop stop-color="#23283E"/>
<stop offset="1" stop-color="#3139A3"/>
</linearGradient>
<linearGradient id="paint1_linear" x1="8.65181" y1="5.19956" x2="11.4459" y2="10.0058" gradientUnits="userSpaceOnUse">
<stop stop-color="#23283E"/>
<stop offset="1" stop-color="#3139A3"/>
</linearGradient>
<linearGradient id="paint2_linear" x1="9.68605" y1="8.55612" x2="12.4787" y2="12.4224" gradientUnits="userSpaceOnUse">
<stop stop-color="#23283E"/>
<stop offset="1" stop-color="#3139A3"/>
</linearGradient>
<linearGradient id="paint3_linear" x1="10.2199" y1="11.2743" x2="16.3419" y2="12.4219" gradientUnits="userSpaceOnUse">
<stop stop-color="#23283E"/>
<stop offset="1" stop-color="#3139A3"/>
</linearGradient>
<linearGradient id="paint4_linear" x1="11.7393" y1="13.2823" x2="15.784" y2="13.1696" gradientUnits="userSpaceOnUse">
<stop stop-color="#23283E"/>
<stop offset="1" stop-color="#3139A3"/>
</linearGradient>
<linearGradient id="paint5_linear" x1="12.1728" y1="15.5507" x2="16.217" y2="15.4255" gradientUnits="userSpaceOnUse">
<stop stop-color="#23283E"/>
<stop offset="1" stop-color="#3139A3"/>
</linearGradient>
<linearGradient id="paint6_linear" x1="12.3465" y1="12.2256" x2="14.6087" y2="12.8581" gradientUnits="userSpaceOnUse">
<stop stop-color="#23283E"/>
<stop offset="1" stop-color="#3139A3"/>
</linearGradient>
<linearGradient id="paint7_linear" x1="3.80731" y1="14.8812" x2="10.0057" y2="15.1732" gradientUnits="userSpaceOnUse">
<stop stop-color="#23283E"/>
<stop offset="1" stop-color="#3139A3"/>
</linearGradient>
<linearGradient id="paint8_linear" x1="2.92657" y1="22.7796" x2="9.06228" y2="22.3905" gradientUnits="userSpaceOnUse">
<stop stop-color="#23283E"/>
<stop offset="1" stop-color="#3139A3"/>
</linearGradient>
<linearGradient id="paint9_linear" x1="6.90952" y1="22.7857" x2="12.0919" y2="22.4744" gradientUnits="userSpaceOnUse">
<stop stop-color="#23283E"/>
<stop offset="1" stop-color="#3139A3"/>
</linearGradient>
<linearGradient id="paint10_linear" x1="3.29798" y1="8.22253" x2="8.65559" y2="12.6986" gradientUnits="userSpaceOnUse">
<stop stop-color="#23283E"/>
<stop offset="1" stop-color="#3139A3"/>
</linearGradient>
<linearGradient id="paint11_linear" x1="16.8059" y1="3.72678" x2="18.2119" y2="7.64335" gradientUnits="userSpaceOnUse">
<stop stop-color="#23283E"/>
<stop offset="1" stop-color="#3139A3"/>
</linearGradient>
<linearGradient id="paint12_linear" x1="17.5227" y1="5.24582" x2="18.6265" y2="8.89877" gradientUnits="userSpaceOnUse">
<stop stop-color="#23283E"/>
<stop offset="1" stop-color="#3139A3"/>
</linearGradient>
<linearGradient id="paint13_linear" x1="18.0697" y1="6.86405" x2="18.5083" y2="9.26017" gradientUnits="userSpaceOnUse">
<stop stop-color="#23283E"/>
<stop offset="1" stop-color="#3139A3"/>
</linearGradient>
<linearGradient id="paint14_linear" x1="17.3505" y1="8.22698" x2="20.942" y2="10.2755" gradientUnits="userSpaceOnUse">
<stop stop-color="#23283E"/>
<stop offset="1" stop-color="#3139A3"/>
</linearGradient>
<linearGradient id="paint15_linear" x1="17.392" y1="9.27165" x2="20.2139" y2="12.3226" gradientUnits="userSpaceOnUse">
<stop stop-color="#23283E"/>
<stop offset="1" stop-color="#3139A3"/>
</linearGradient>
<linearGradient id="paint16_linear" x1="18.5919" y1="9.62548" x2="19.2629" y2="13.705" gradientUnits="userSpaceOnUse">
<stop stop-color="#23283E"/>
<stop offset="1" stop-color="#3139A3"/>
</linearGradient>
<linearGradient id="paint17_linear" x1="17.8287" y1="12.8955" x2="17.7131" y2="18.8951" gradientUnits="userSpaceOnUse">
<stop stop-color="#23283E"/>
<stop offset="1" stop-color="#3139A3"/>
</linearGradient>
<linearGradient id="paint18_linear" x1="6.90952" y1="22.7857" x2="12.0919" y2="22.4744" gradientUnits="userSpaceOnUse">
<stop stop-color="#23283E"/>
<stop offset="1" stop-color="#3139A3"/>
</linearGradient>
<linearGradient id="paint19_linear" x1="22.6991" y1="19.8226" x2="17.6526" y2="19.8846" gradientUnits="userSpaceOnUse">
<stop stop-color="#23283E"/>
<stop offset="1" stop-color="#3139A3"/>
</linearGradient>
<linearGradient id="paint20_linear" x1="28.938" y1="22.932" x2="24.7665" y2="22.9827" gradientUnits="userSpaceOnUse">
<stop stop-color="#23283E"/>
<stop offset="1" stop-color="#3139A3"/>
</linearGradient>
<linearGradient id="paint21_linear" x1="27.0858" y1="11.0066" x2="22.7983" y2="11.5087" gradientUnits="userSpaceOnUse">
<stop stop-color="#23283E"/>
<stop offset="1" stop-color="#3139A3"/>
</linearGradient>
<linearGradient id="paint22_linear" x1="12.2858" y1="1.83291" x2="12.2472" y2="6.15431" gradientUnits="userSpaceOnUse">
<stop stop-color="#23283E"/>
<stop offset="1" stop-color="#3139A3"/>
</linearGradient>
<linearGradient id="paint23_linear" x1="26.2124" y1="12.3405" x2="21.0145" y2="12.6498" gradientUnits="userSpaceOnUse">
<stop stop-color="#23283E"/>
<stop offset="1" stop-color="#3139A3"/>
</linearGradient>
<linearGradient id="paint24_linear" x1="25.8791" y1="17.0699" x2="21.392" y2="17.023" gradientUnits="userSpaceOnUse">
<stop stop-color="#23283E"/>
<stop offset="1" stop-color="#3139A3"/>
</linearGradient>
<linearGradient id="paint25_linear" x1="9.18187" y1="22.3455" x2="15.3176" y2="21.9563" gradientUnits="userSpaceOnUse">
<stop stop-color="#23283E"/>
<stop offset="1" stop-color="#3139A3"/>
</linearGradient>
</defs>
</svg>
