<?xml version="1.0" encoding="UTF-8"?>
<svg viewBox="0 0 110 90" xmlns="http://www.w3.org/2000/svg" xmlns:xlink="http://www.w3.org/1999/xlink">
 <defs>
  <linearGradient id="aq" x1=".32286" x2=".73711" y1="-.7105" y2="2.0454" xlink:href="#a"/>
  <linearGradient id="ax" x1=".95218" x2="-.54496" y1=".6481" y2=".45514" xlink:href="#a"/>
  <linearGradient id="ap" x1="-.30345" x2="1.4007" y1="-.044104" y2="1.4103" xlink:href="#a"/>
  <linearGradient id="an" x1=".081568" x2="1.0872" y1="-.63442" y2="1.9944" xlink:href="#a"/>
  <linearGradient id="am" x1=".14852" x2="1.0149" y1="-.39681" y2="1.651" xlink:href="#a"/>
  <linearGradient id="ao" x1="-.33558" x2="1.4681" y1=".17714" y2="1.1296" xlink:href="#a"/>
  <linearGradient id="ar" x1=".29761" x2=".28587" y1=".047767" y2=".93824" xlink:href="#a"/>
  <linearGradient id="aw" x1=".86522" x2="-.25897" y1=".59324" y2=".63556" xlink:href="#a"/>
  <linearGradient id="b" x1="-.25099" x2="1.9002" y1=".60148" y2=".45572" xlink:href="#a"/>
  <linearGradient id="av" x1="1.0435" x2=".36202" y1=".52599" y2="4.0135" xlink:href="#a"/>
  <linearGradient id="at" x1="1.35" x2="-1.6065" y1=".72564" y2=".40494" xlink:href="#a"/>
  <linearGradient id="as" x1="1.3807" x2="-1.7057" y1=".73007" y2=".39066" xlink:href="#a"/>
  <linearGradient id="au" x1="1.007" x2="-.44447" y1=".63497" y2=".84112" xlink:href="#a"/>
  <linearGradient id="al" x1=".17412" x2="1.1682" y1="-.096497" y2="1.5843" xlink:href="#a"/>
  <linearGradient id="ad" x1="-.37265" x2="1.5457" y1=".39837" y2=".8797" xlink:href="#a"/>
  <linearGradient id="ak" x1=".062635" x2="1.2454" y1=".24215" y2="1.2059" xlink:href="#a"/>
  <linearGradient id="ac" x1=".14542" x2="1.0199" y1=".24047" y2=".95951" xlink:href="#a"/>
  <linearGradient id="aa" x1=".18946" x2=".98575" y1="-.35495" y2="1.8243" xlink:href="#a"/>
  <linearGradient id="a">
   <stop stop-color="#23283e" offset="0"/>
   <stop stop-color="#3139a3" offset="1"/>
  </linearGradient>
  <linearGradient id="ab" x1="-.001883" x2=".90839" y1="-.13168" y2=".96558" xlink:href="#a"/>
  <linearGradient id="ae" x1=".017268" x2="1.2244" y1=".51287" y2=".52505" xlink:href="#a"/>
  <linearGradient id="aj" x1="-.27683" x2="1.9541" y1=".60975" y2=".43843" xlink:href="#a"/>
  <linearGradient id="af" x1=".052725" x2="1.274" y1=".55107" y2=".56094" xlink:href="#a"/>
  <linearGradient id="ah" x1="-.065664" x2="1.5132" y1=".48381" y2=".70138" xlink:href="#a"/>
  <linearGradient id="ag" x1=".11578" x2="1.1409" y1=".44585" y2=".78277" xlink:href="#a"/>
  <linearGradient id="ai" x1="-.27683" x2="1.9541" y1=".60975" y2=".43844" xlink:href="#a"/>
 </defs>
This is flowed text. Currently, you can only edit it by using the XML editor. You can paste style (Ctrl+Shift+V) from regular text objects to it.This is flowed text. Currently, you can only edit it by using the XML editor. You can paste style (Ctrl+Shift+V) from regular text objects to it.
 <use x="1" y="12" xlink:href="#flowRoot5491"/>
This is flowed text. Currently, you can only edit it by using the XML editor. You can paste style (Ctrl+Shift+V) from regular text objects to it.This is flowed text. Currently, you can only edit it by using the XML editor. You can paste style (Ctrl+Shift+V) from regular text objects to it.This is flowed text. Currently, you can only edit it by using the XML editor. You can paste style (Ctrl+Shift+V) from regular text objects to it.This is flowed text. Currently, you can only edit it by using the XML editor. You can paste style (Ctrl+Shift+V) from regular text objects to it.
 <g stroke-width="0">
  <g fill="#060715">
   <path d="m22.291 75.46c2.3118-30.692 21.908-45.648 45.251-46.978-0.39186-6.6689-4.6347-2.3991-6.1661-3.9211-27.327 1.1554-39.887 18.612-39.085 50.899z"/>
   <path d="m23.162 89.665c-12.732-39.442 7.3179-72.689 39.266-66.299-5.1781-7.3063-29.074-5.4566-35.206-0.88647-11.074 5.3899-22.86 19.486-4.06 67.185z"/>
   <path d="m29.361 65.99c1.5813-24.155 14.986-35.926 30.952-36.972-0.26805-5.2485-3.1702-1.8881-4.2177-3.086-18.692 0.90932-27.284 14.648-26.735 40.058z"/>
   <path d="m46.907 48.149c1.7345-14.507 16.437-21.577 33.95-22.205-0.29396-3.1522-3.4773-1.134-4.6262-1.8534-20.502 0.54617-29.926 8.7975-29.324 24.058z"/>
   <path d="m28.262 85.435c-11.437-39.996 6.5736-73.71 35.272-67.23-4.6515-7.4089-26.118-5.5332-31.625-0.89892-9.9476 5.4656-20.535 19.76-3.6471 68.129z"/>
   <path d="m25.502 82.675c-10.211-43.676 6.5736-73.71 35.272-67.23-4.6515-7.4089-25.198-2.1604-30.705 2.474-11.481 11.905-21.455 16.387-4.567 64.756z"/>
   <path d="m13.745 74.575c2.99-30.072 28.336-44.726 58.527-46.028-0.50682-6.5341-5.9944-2.3506-7.9751-3.8419-35.344 1.132-51.59 18.236-50.552 49.87z"/>
   <path d="m13.532 69.962c2.99-30.072 28.336-44.726 58.527-46.028-0.50682-6.5341-5.9944-2.3506-7.9751-3.8419-35.344 1.132-51.59 18.236-50.552 49.87z"/>
   <path d="m6.782 62.16c6.4238-29.529 34.617-40.177 64.757-38.004 0.24691-6.549-7.0166-4.0223-8.8129-5.7312-35.24-2.9344-53.342 12.191-55.944 43.735z"/>
   <path d="m2.2661 48.394c12.121-25.903 40.752-27.82 69.872-15.471 1.5336-6.1466-4.9769-4.8158-6.4009-7.0545-33.969-14.814-54.699-6.5986-63.471 22.525z"/>
   <path d="m1.8894 35.124c23.483-20.724 39.859-19.303 61.06 3.8653 3.738-6.5102 1.1242-3.4496 4.8219-8.508-29.695-25.968-50.365-20.348-65.882 4.6428z"/>
   <path d="m9.124 19.884c22.563-9.0718 20.542-5.1981 48.182 5.705 3.738-6.5102 6.0303-2.8363 9.7279-7.8948-16.203-13.09-36.567-9.9225-57.91 2.1898z"/>
   <path d="m104.37 32.589c-10.951-7.7941-5.6544-13.179-34.331-5.3968-2.9956-6.8834-3.6532-5.512-6.7692-10.948 21.604-9.53 36.764 6.0016 41.1 16.345z"/>
   <path d="m33.04 60.47c1.5813-19.718 12.226-24.42 28.193-25.274-0.26804-4.2843 0.20269-6.1406-0.84481-7.1184-18.692 0.74227-27.897 11.651-27.348 32.393z"/>
   <path d="m90.008 79.518c0.62072-25.085-8.3701-46.454-26.27-48.66 0.71837-5.2306 3.1908-0.77599 4.2958-1.615 17.752 7.6468 24.738 24.682 21.974 50.275z"/>
   <path d="m72.692 49.066c0.62074-16.764-11.13-27.971-26.27-32.519 0.71838-3.4956 3.1909-0.51859 4.2958-1.0793 17.752 5.1103 24.738 16.495 21.974 33.598z"/>
   <path d="m101.93 83.612c2.426-28.526 1.1856-38.961-32.93-56.905 0.90302-6.4912 6.8427-3.6538 8.9104-5.022 13.475 30.746 20.291 33.28 24.02 61.927z"/>
   <path d="m94.934 83.534c-2.1815-24.998-10.823-43.724-23.868-51.558 0.13042-5.2781 3.0844-1.1271 4.0888-2.0841 18.494 5.6187 19.671 27.901 19.78 53.642z"/>
   <path d="m91.051 87.049c2.2446-24.992-2.9724-44.946-14.438-54.95 1.0558-5.173 3.2344-0.56763 4.3914-1.3333 17.22 8.7808 14.463 30.923 10.047 56.283z"/>
   <path d="m89.444 82.566c5.9414-21.156 2.1237-37.938-10.6-46.217 1.9518-4.3879 4.0233-0.52927 5.5344-1.194 19.908 7.1569 13.706 25.911 5.0656 47.411z"/>
   <path d="m95.096 71.974c5.9414-21.156-6.1552-36.712-18.879-44.99 1.9518-4.3879 12.302-1.7558 13.813-2.4205 14.696 12.063 11.866 29.591 5.0656 47.411z"/>
   <path d="m106.93 49.572c-9.3129-25.903-27.011-25.193-46.996-22.158-1.1783-6.1466-3.5804-6.9654-2.4863-9.2041 26.099-14.814 42.743 2.2387 49.482 31.362z"/>
   <path d="m106.41 81.312c-7.4021-49.31-20.084-45.734-39.114-47.715-1.1783-6.1466 10.989-10.548 12.083-12.787 18.456 2.8611 26.979 24.69 27.031 60.502z"/>
   <path d="m22.294 2.3157c19.563 2.925 21.05 3.1415 31.798 15.267 6.5102 3.738 3.4496-1.9808 8.508 1.7169-10.098-20.38-28.09-18.261-40.306-16.984z"/>
   <path d="m96.04 17.516c-21.252-8.5595-25.103 0.43925-35.176 0.066673-6.5102 3.738-6.1518-2.3186-11.21 1.3791 16.178-19.028 39.237-10.154 46.386-1.4458z"/>
   <path d="m107.14 65.841c-2.99-30.072-28.336-44.726-58.527-46.028 0.50684-6.534 5.9944-2.3506 7.9751-3.8419 35.344 1.132 51.59 18.236 50.552 49.87z"/>
  </g>
  <path d="m49.939 16.576c-5.3027-0.251-7.0841 0.58892-10.386 1.3257 2.983 0.41281 5.0076-0.93125 5.8902-0.05954 0.42725-0.48844-1.2483-0.063541-1.8411 0.94124 2.7602-1.1077 5.7903-1.867 6.3363-2.2074z" fill="url(#aa)"/>
  <path d="m51.414 12.21c-1.5072-0.48195-7.6068-1.3454-19.158 1.9069 6.9951 0.05197 8.3108-0.88225 9.2996 0.39898 1.1401-1.2127-2.3485 0.46605-5.6599 2.6984 5.2874 0.05563 6.9764-1.7636 7.1317-0.96123 0.81411 0.42198-2.8094 0.84651-4.4738 3.2578 3.2875-0.73977 6.6866-3.8937 13.964-4.2802-2.5574-0.68432-5.3925-1.0528-8.86-0.5776 1.1563-1.7672 6.3719-1.5256 7.7572-2.443z" fill="url(#ab)"/>
  <path d="m54.881 16.696c-9.9163 0.37636-13.987 3.241-22.436 7.357 6.9031-1.1322 11.918-4.512 13.11-3.4165 0.91847-1.388-3.7267 0.11116-6.6128 2.8715 4.9224-2.1816 5.2843-2.6335 4.0518 0.024681 3.115-0.98708 3.2478-2.5832 10.354-4.1953-2.6364-0.24179-3.1074-0.12535-6.4444 0.92963 0.84061-1.9374 6.7674-2.4325 7.9776-3.571z" fill="url(#ac)"/>
  <path d="m53.835 21.547c-8.9825 1.1041-9.7215 3.0674-11.994 5.8549 5.498-1.6365 4.5894-2.2446 6.6585-1.2397-0.3423-1.4517-3.4021 0.3848-3.7161 3.3498 2.7279-2.5374 3.8869-3.0881 8.265-5.6653-2.6848-0.047401-3.7714 0.2524-6.2868 1.2516-0.8921-1.9939 6.9258-2.3269 7.074-3.5513h-1.03e-4z" fill="url(#ad)"/>
  <path d="m55.524 24.862c-6.7217 2.0016-8.4937 4.6508-12.839 8.9155 4.3623-1.9802 6.6-5.1431 7.823-4.6145 0.12973-1.0978-2.5371 0.73185-3.528 3.1018 2.6101-2.3387 2.6958-2.7072 2.8115-0.69753 1.795-1.2146 1.3055-2.3144 5.6338-4.654-1.9115 0.30165-2.1949 0.46318-4.1188 1.7628-0.12421-1.4546 3.7948-2.8331 4.2171-3.8141z" fill="url(#ae)"/>
  <path d="m56.27 28.59c-7.3181 4.2381-8.9409 7.0363-12.69 11.003 4.3622-1.9802 5.8545-5.7395 7.823-5.2108 0.12972-1.0978-1.7268 0.99107-1.611 3.0007 2.6896-4.0475 6.0552-7.8116 6.4776-8.7926z" fill="url(#af)"/>
  <path d="m52.732 24.794c-4.542 1.7072-5.773 3.1775-8.3158 5.1068 2.6417-0.6969 3.9165-2.7457 4.9373-2.2247 0.2037-0.631-1.0706 0.3976-1.2488 1.5905 1.9691-2.0901 4.2765-3.9415 4.6273-4.4726z" fill="url(#ag)"/>
  <path d="m28.119 25.384c-8.1543 3.0485-11.265 7.4069-14.826 14.555 2.7074-4.1547 5.6809-6.8627 6.7708-8.0003 1.0686-1.065 3.1173-3.081 8.0548-6.555z" fill="url(#ah)"/>
  <path d="m21.248 39.466c-7.0718 5.0769-8.9328 10.098-10.498 17.929 1.5253-4.7186 3.6862-8.1105 4.4403-9.4938 0.7525-1.3076 2.2021-3.7896 6.0579-8.435z" fill="url(#ai)"/>
  <path d="m34.605 41.214c-6.0615 4.4102-7.7298 8.8676-9.205 15.845 1.3794-4.1935 3.2682-7.188 3.9313-8.4115 0.66025-1.1559 1.9314-3.3496 5.2737-7.4339z" fill="url(#b)"/>
  <path d="m28.432 14.777c-8.6795 0.6719-12.875 3.9989-18.276 9.882 3.7518-3.2428 7.3588-5.0217 8.721-5.8131 1.3216-0.72751 3.8484-2.0976 9.5547-4.0689z" fill="url(#ak)"/>
  <path d="m74.953 8.5328c-5.4209-0.15185-6.199-0.44174-13.701 2.7868 5.4183-1.4592 5.8577-0.42776 6.6874 0.61471 0.63161-0.90729-1.8797-0.70728-3.8701 0.91653 3.404-0.83335 3.7203-0.62795 8.6403-0.65275-1.8282-0.6344-2.0607-1.619-4.37-1.379 0.57563-1.3416 5.7784-1.6199 6.6131-2.2863z" fill="url(#al)"/>
  <path d="m74.752 13.715c-4.4351-1.5296-7.7156-0.22469-10.08 1.5245 2.8053-0.75492 5.3588-1.2726 5.8837-0.21471 0.42022-0.89528-2.243-0.1657-3.5523 1.4205 2.2155-0.76931 2.9568-1.4816 2.3874 0.32942 1.3992-0.18535 1.4698-1.3841 4.6576-1.3166-1.1767-0.66861-1.3881-0.66574-2.8871-0.46909 0.38926-1.3305 3.0419-0.6234 3.5908-1.274z" fill="url(#am)"/>
  <path d="m75.59 16.576c-5.3027-0.251-4.9225 0.012491-8.2239 0.74928 2.983 0.41281 3.7107-0.78714 4.5933 0.084572 0.42725-0.48844-1.2483-0.063541-1.8411 0.94124 2.7602-1.1077 4.9257-1.4347 5.4717-1.7751z" fill="url(#an)"/>
  <path d="m75.882 17.625c-5.8478 0.022953-6.444 1.141-8.0781 2.642 3.6384-0.58671 3.0912-1.0135 4.3607-0.2681-0.13094-0.88964-2.2128-0.011238-2.5972 1.734 1.9114-1.3197 2.6911-1.566 5.6667-2.7927-1.7246-0.21811-2.4422-0.11621-4.1223 0.30153-0.45134-1.2517 4.5997-0.89734 4.7703-1.6167z" fill="url(#ao)"/>
  <path d="m75.915 21.044c-5.8235-0.53297-6.5234 0.52336-8.2927 1.8622 3.6776-0.23824 3.1735-0.7151 4.3664 0.14758-0.045784-0.89806-2.2017-0.22151-2.7503 1.4793 2.0282-1.132 2.8277-1.3031 5.9065-2.2415-1.6961-0.38105-2.4201-0.3478-4.1323-0.09164-0.33033-1.2889 4.6642-0.45609 4.9024-1.156z" fill="url(#ap)"/>
  <path d="m74.183 25.582c-2.2033-2.4343-3.82-1.4122-6.6949-0.65571 1.7625 1.0456 3.7151-0.10207 3.68 1.0412 0.55978-0.78379-0.82006-0.93744-2.158 0.33115 1.618-0.27936 1.8136-0.51734 0.85336 1.1278 0.92049 0.11664 1.3682-1.0375 3.3-0.29405-0.4959-0.90215-0.62645-0.94427-1.6119-1.0711 0.68762-1.2148 2.0755 0.038578 2.6316-0.47925z" fill="url(#aq)"/>
  <path d="m70.558 43.75c-2.2185-7.4958-3.4874-12.105-6.1032-15.428 1.3059 3.8669 2.344 5.3338 1.9953 7.0787 0.72398 0.11499-0.50946-2.2512-1.8348-2.1486 2.6692 2.3842 5.2956 10.123 5.9426 10.498z" fill="url(#ar)"/>
  <path d="m34.605 41.214c-6.0615 4.4102-7.7298 8.8676-9.205 15.845 1.3794-4.1935 3.2682-7.188 3.9313-8.4115 0.66025-1.1559 1.9314-3.3496 5.2737-7.4339z" fill="url(#b)"/>
  <path d="m75.399 33.054c4.2015 5.9658 5.7967 9.3472 6.1907 16.763-0.63565-4.3685-1.9798-6.9233-2.422-8.2429-0.45105-1.2524-1.469-3.4883-3.7687-8.5202z" fill="url(#as)"/>
  <path d="m100.18 42.615c3.5453 5.0213 4.9082 7.8797 5.3439 14.197-0.5886-3.715-1.7326-5.8725-2.1161-6.9908-0.38982-1.0609-1.2607-2.9515-3.2278-7.2062z" fill="url(#at)"/>
  <path d="m90.69 18.001c5.3142 3.0889 8.1759 6.273 11.203 11.835-2.0822-3.1325-4.0206-4.6177-4.835-5.4746-0.7962-0.80218-2.8076-3.3113-6.3678-6.3604z" fill="url(#au)"/>
  <path d="m26.078 2.1496c6.713-0.22339 14.452-1.1266 19.666 2.4665-3.9938-1.2765-6.9707-1.5809-9.3815-1.8331-1.0728-0.35563-2.5601-0.2435-10.284-0.63336z" fill="url(#av)"/>
  <path d="m83.108 18.196c7.1889 2.5752 15.404 9.8783 17.722 17.353-2.0022-3.9343-6.4-8.3734-7.2418-9.4816-0.82867-1.0418-3.9506-3.554-10.48-7.8715z" fill="url(#aw)"/>
  <path d="m85.739 27.274c5.5163 3.7068 10.912 11.655 11.306 18.507-0.86625-3.7714-3.6443-8.4772-4.1222-9.5981-0.48068-1.0615-2.5858-3.8581-7.1838-8.9093z" fill="url(#ax)"/>
  <g fill="#060715">
   <path d="m80.99 45.527c-2.1815-11.505-15.729-18.571-31.534-20.906 0.13041-2.4291 3.0844-0.51872 4.0888-0.95915 18.494 2.5859 27.337 10.018 27.445 21.865z"/>
   <path d="m76.081 43.734c-1.5904-14.535-16.359-19.78-29.061-22.805 0.1405-3.0661 6.4469-4.3814 7.2627-4.9326 14.866 3.3541 21.884 12.78 21.798 27.737z"/>
   <path d="m63.594 46.212c0.52892-14.856-9.4835-24.788-22.384-28.818 0.61212-3.0978 5.0703-2.6387 6.0118-3.1356 15.126 4.5287 18.727 16.797 16.372 31.954z"/>
  </g>
  <path d="m45.254 38.996c-7.0719 5.0769-8.9328 10.098-10.498 17.929 1.5253-4.7186 3.6862-8.1105 4.4403-9.4938 0.75249-1.3076 2.2021-3.7896 6.0579-8.4351z" fill="url(#aj)"/>
  <g fill="#060715">
   <path d="m41.139 56.232c1.5813-25.382 16.292-23.832 32.259-24.878-0.26805-5.2485-2.8636 2.098-3.9111 0.90014-21.758 0.29607-28.897-1.4319-28.348 23.978z"/>
   <path d="m36.345 57.348c1.4282-14.507 13.534-21.577 27.955-22.205-0.24207-3.1522-2.8632-1.134-3.8092-1.8534-16.882 0.54612-24.641 8.7975-24.146 24.058z"/>
   <path d="m27.799 76.881c-1.9085-21.891 4.96-37.672 19-43.444-1.1028-4.6741-3.855-1.2674-5.2163-2.2012-20.891 3.3345-18.28 22.915-13.784 45.645z"/>
  </g>
 </g>
</svg>
